<svg width="1080" height="1080" viewBox="0 0 1080 1080" fill="none" xmlns="http://www.w3.org/2000/svg">
<g clip-path="url(#clip0_412_7354)">
<path d="M14.7656 977.509C45.7858 977.509 92.3162 912.367 146.602 903.061C177.622 903.061 200.887 968.203 278.438 977.509C332.723 977.509 355.988 912.367 410.273 912.367C464.559 912.367 487.824 977.509 542.109 977.509C596.395 977.509 619.66 912.367 673.945 912.367C728.231 912.367 751.496 977.509 805.781 977.509C860.067 977.509 883.332 912.367 937.617 912.367C991.903 912.367 1015.17 977.509 1069.45 977.509" stroke="black" stroke-width="27.9182" stroke-linecap="round" stroke-linejoin="round"/>
<path d="M120.855 912.677L85.3369 844.743L1000.43 785.804C928.466 851.257 836.026 904.301 742.5 947.73" stroke="black" stroke-width="27.9182" stroke-linecap="round" stroke-linejoin="round"/>
<path d="M449.67 211.93C605.391 259.546 823.153 489.561 897.292 736.792C856.655 720.817 826.255 704.531 769.178 719.111C713.962 518.255 615.163 326.395 449.67 211.93Z" stroke="black" stroke-width="27.9182" stroke-linecap="round" stroke-linejoin="round"/>
<path d="M160.096 101.964C359.557 187.269 633.155 424.729 683.408 740.98C453.393 648.23 278.283 697.707 156.374 772.931C342.34 536.557 258.896 267.767 160.096 101.964Z" stroke="black" stroke-width="27.9182" stroke-linecap="round" stroke-linejoin="round"/>
</g>
<defs>
<clipPath id="clip0_412_7354">
<rect width="1080" height="1080" fill="white"/>
</clipPath>
</defs>
</svg>
