<svg width="238" height="198" viewBox="0 0 238 198" fill="none" xmlns="http://www.w3.org/2000/svg">
<path d="M31.2503 14.5892C36.3528 12.2328 40.6351 12.7032 46.1336 12.6983L59.8036 12.6935L73.9303 12.697C77.8531 12.6978 81.9643 12.4638 85.7771 13.2369C87.3499 13.8202 88.2031 14.2711 89.6436 15.1555C93.2753 18.2045 96.2574 23.5902 99.5465 25.0822C103.502 27.579 112.44 26.9574 117.277 26.9526L137.064 26.9364L185.682 26.9368C194.368 26.9372 203.447 26.7964 212.101 26.9734C213.967 27.0526 214.599 27.4852 215.688 27.5897C216.603 28.0107 217.617 28.4621 218.494 28.9432C227.158 33.7068 225.526 46.0124 225.393 54.4807C225.591 62.445 225.469 70.7474 225.467 78.7503V119.189V145.313C225.467 149.941 225.631 156.178 225.267 160.707C221.785 175.007 212.989 173.371 200.582 173.362L182.356 173.347L127.007 173.344L68.5611 173.349L49.6161 173.353C45.9899 173.354 41.7809 173.452 38.2057 173.252C35.0514 172.971 34.6463 172.375 32.0746 171.84C30.7466 170.619 29.762 170.243 28.0233 168.469C26.5192 166.455 26.1971 165.702 25.3712 163.312C24.6341 158.125 24.8424 151.517 24.8445 146.172L24.8542 121.931L24.8501 78.1724C24.8497 69.3382 24.7123 60.0971 24.9959 51.3018C24.709 48.4209 24.842 43.1009 24.8382 40.0491C24.8321 35.221 24.6829 29.8912 25.0789 25.1363C25.5173 19.872 27.2818 17.8796 31.1792 14.6845L31.2503 14.5892Z" fill="#76BDE7"/>
<path d="M31.2503 14.5892C36.3528 12.2328 40.6351 12.7032 46.1336 12.6983L59.8036 12.6935L73.9303 12.697C77.8531 12.6978 81.9643 12.4638 85.7771 13.2369C87.3499 13.8202 88.2031 14.2711 89.6436 15.1555C93.2753 18.2045 96.2574 23.5902 99.5465 25.0822C103.502 27.579 112.44 26.9574 117.277 26.9526L137.064 26.9364L185.682 26.9368C194.368 26.9372 203.447 26.7964 212.101 26.9734C213.967 27.0526 214.599 27.4852 215.688 27.5897C216.603 28.0107 217.617 28.4621 218.494 28.9432C227.158 33.7068 225.526 46.0124 225.393 54.4807C225.107 54.0517 225.293 53.3726 225.152 52.738C224.967 51.9174 224.646 51.2638 224.31 50.516C222.751 47.0358 221.567 45.6487 218.55 43.4175C218.542 42.62 218.483 41.9609 218.409 41.166C218.396 41.9607 218.524 42.4254 218.149 43.0059C216.579 42.8489 214.649 41.8558 212.299 41.7875C205.748 41.5974 199.062 41.7057 192.513 41.7158L154.924 41.7162L57.6918 41.7115C50.7431 41.7027 43.5471 41.5628 36.6037 41.8714C34.9445 41.9449 31.9497 43.3653 31.3752 43.1485L31.2234 42.8568C30.9889 44.0168 28.0765 46.1434 27.1601 47.5757C26.4317 48.7147 25.5655 50.0569 24.9959 51.3018C24.709 48.4209 24.842 43.1009 24.8382 40.0491C24.8321 35.221 24.6829 29.8912 25.0789 25.1363C25.5173 19.872 27.2818 17.8796 31.1792 14.6845L31.2503 14.5892Z" fill="#6BB3E0"/>
<path d="M31.2233 42.8568C31.7921 37.4141 32.7381 33.9026 39.1016 33.6244C42.4966 33.4761 45.8372 33.5118 49.2389 33.5116L66.4351 33.5106L120.128 33.5086L180.088 33.5102L199.564 33.5108C203.098 33.5108 206.633 33.4809 210.167 33.5678C215.522 33.6995 218.091 35.6098 218.408 41.166C218.396 41.9607 218.524 42.4254 218.149 43.0059C216.578 42.8489 214.649 41.8558 212.299 41.7875C205.748 41.5974 199.062 41.7057 192.513 41.7158L154.924 41.7162L57.6917 41.7116C50.743 41.7027 43.5471 41.5628 36.6036 41.8714C34.9444 41.9449 31.9496 43.3654 31.3751 43.1486L31.2233 42.8568Z" fill="#FEFEFE"/>
<path d="M117.4 65.4824C121.734 65.0728 122.995 68.2342 124.82 71.4515C127.596 67.3053 130.393 62.2684 135.608 67.6015C135.702 67.8537 135.789 68.1083 135.869 68.3651C136.177 69.3628 136.32 70.9154 135.831 71.8426C129.229 84.3354 121.25 96.7117 114.579 109.116L124.056 109.055C131.426 109.07 133.932 111.748 133.773 118.984C129.907 119.126 125.851 119.066 121.969 119.064L101.389 119.095C97.2223 119.098 92.5803 119.196 88.4577 118.96C85.6012 117.15 83.8325 113.571 86.5473 111.059C89.7292 108.115 99.0412 109.073 103.164 109.093C108.652 99.8134 114.075 90.4951 119.431 81.1387C117.564 78.6993 115.756 75.4376 114.395 72.6848C112.713 69.2794 114.091 66.8345 117.4 65.4824Z" fill="#64A1C5"/>
<path d="M132.8 85.6094C134.212 86.932 144.979 106.24 146.642 109.179C149.813 109.044 153.053 109.093 156.231 109.059C159.519 109.023 161.628 109.362 163.995 111.781C165.465 115.525 163.568 118.673 159.645 118.994C157.371 119.179 154.71 119.112 152.399 119.156C153.906 121.862 155.62 124.377 157.141 127.205C158.641 130.616 157.879 132.886 154.759 134.916C151.194 135.154 150.326 134.8 148.427 131.561C142.687 121.665 136.724 111.829 131.262 101.781C128.277 96.2897 129.147 90.4455 132.8 85.6094Z" fill="#64A1C5"/>
<path d="M97.5482 122.282C100.437 122.083 103.031 123.283 105.01 125.319C103.474 128.294 101.321 132.163 98.9323 134.427C94.7435 136.782 91.0819 132.696 92.1993 128.652C92.925 126.026 94.5714 122.606 97.5482 122.282Z" fill="#64A1C5"/>
</svg>
