<svg width="1080" height="760" viewBox="0 0 1080 760" fill="none" xmlns="http://www.w3.org/2000/svg">
<rect width="1080" height="760" fill="#DCD3C0"/>
<path d="M445.992 481.534H453.094C458.133 481.534 461.004 484.546 461.004 489.831C461.004 495.386 458.18 498.456 453.094 498.456H445.992V481.534ZM450.293 484.991V494.999H452.32C455.109 494.999 456.621 493.265 456.621 489.913C456.621 486.761 455.027 484.991 452.32 484.991H450.293ZM463.828 498.456V485.413H467.859V487.558H468.082C468.398 486.245 469.664 485.214 471.293 485.214C471.844 485.214 472.488 485.284 472.793 485.413V488.94C472.477 488.812 471.645 488.706 471.012 488.706C469.184 488.706 467.965 489.737 467.965 491.554V498.456H463.828ZM479.648 495.761C480.961 495.761 481.98 494.894 481.98 493.769V492.913L479.789 493.054C478.559 493.147 477.914 493.628 477.914 494.413C477.914 495.245 478.605 495.761 479.648 495.761ZM478.137 498.655C475.629 498.655 473.918 497.097 473.918 494.706C473.918 492.327 475.77 490.944 479.133 490.745L481.98 490.581V489.562C481.98 488.683 481.324 488.155 480.176 488.155C479.086 488.155 478.383 488.519 478.113 489.21H474.387C474.574 486.679 476.883 485.108 480.41 485.108C484.008 485.108 486.059 486.749 486.059 489.562V498.456H482.027V496.839H481.805C481.219 497.952 479.789 498.655 478.137 498.655ZM495.27 495.222C496.863 495.222 497.801 493.944 497.801 491.858C497.801 489.761 496.852 488.472 495.27 488.472C493.699 488.472 492.773 489.761 492.773 491.847C492.773 493.933 493.688 495.222 495.27 495.222ZM495.152 503.366C491.52 503.366 489.07 501.808 488.906 499.464H492.938C493.09 500.167 493.969 500.612 495.27 500.612C496.863 500.612 497.777 499.862 497.777 498.573V496.218H497.555C496.887 497.565 495.562 498.269 493.711 498.269C490.512 498.269 488.52 495.784 488.52 491.858C488.52 487.757 490.512 485.214 493.805 485.214C495.539 485.214 497.004 486.081 497.66 487.511H497.883V485.413H501.926V498.304C501.926 501.409 499.301 503.366 495.152 503.366ZM512.062 482.425H516.199V485.589H518.824V488.671H516.199V493.956C516.199 494.94 516.703 495.421 517.781 495.421C518.262 495.421 518.52 495.397 518.824 495.362V498.315C518.391 498.409 517.629 498.479 516.844 498.479C513.41 498.479 512.062 497.437 512.062 494.882V488.671H510.059V485.589H512.062V482.425ZM527.508 498.761C523.336 498.761 520.863 496.218 520.863 491.929C520.863 487.71 523.406 485.108 527.508 485.108C531.633 485.108 534.152 487.687 534.152 491.929C534.152 496.229 531.691 498.761 527.508 498.761ZM527.508 495.597C529.031 495.597 529.898 494.249 529.898 491.929C529.898 489.655 529.008 488.272 527.508 488.272C526.008 488.272 525.117 489.655 525.117 491.929C525.117 494.261 525.984 495.597 527.508 495.597ZM547.301 498.456H543V481.546H547.301V498.456ZM550.922 498.456V485.413H554.953V487.534H555.176C555.75 486.058 557.109 485.108 558.996 485.108C561.902 485.108 563.414 486.901 563.414 490.03V498.456H559.266V490.956C559.266 489.374 558.621 488.495 557.215 488.495C555.867 488.495 555.059 489.503 555.059 491.003V498.456H550.922ZM566.238 489.339C566.238 486.749 568.453 485.108 571.969 485.108C575.578 485.108 577.559 486.503 577.711 489.128H573.938C573.82 488.366 573.129 487.909 572.004 487.909C570.926 487.909 570.176 488.378 570.176 489.081C570.176 489.632 570.645 489.96 571.676 490.183L574.371 490.733C576.938 491.272 578.051 492.339 578.051 494.319C578.051 497.026 575.672 498.761 572.027 498.761C568.289 498.761 566.156 497.343 565.922 494.718H569.918C570.129 495.526 570.867 495.96 572.086 495.96C573.223 495.96 573.961 495.503 573.961 494.8C573.961 494.249 573.574 493.956 572.531 493.733L570.105 493.218C567.516 492.667 566.238 491.39 566.238 489.339ZM581.695 482.425H585.832V485.589H588.457V488.671H585.832V493.956C585.832 494.94 586.336 495.421 587.414 495.421C587.895 495.421 588.152 495.397 588.457 495.362V498.315C588.023 498.409 587.262 498.479 586.477 498.479C583.043 498.479 581.695 497.437 581.695 494.882V488.671H579.691V485.589H581.695V482.425ZM596.25 495.761C597.562 495.761 598.582 494.894 598.582 493.769V492.913L596.391 493.054C595.16 493.147 594.516 493.628 594.516 494.413C594.516 495.245 595.207 495.761 596.25 495.761ZM594.738 498.655C592.23 498.655 590.52 497.097 590.52 494.706C590.52 492.327 592.371 490.944 595.734 490.745L598.582 490.581V489.562C598.582 488.683 597.926 488.155 596.777 488.155C595.688 488.155 594.984 488.519 594.715 489.21H590.988C591.176 486.679 593.484 485.108 597.012 485.108C600.609 485.108 602.66 486.749 602.66 489.562V498.456H598.629V496.839H598.406C597.82 497.952 596.391 498.655 594.738 498.655ZM605.93 498.456V480.526H610.066V498.456H605.93ZM613.547 498.456V480.526H617.684V498.456H613.547ZM623.918 498.843C622.441 498.843 621.562 497.929 621.562 496.616C621.562 495.292 622.441 494.378 623.918 494.378C625.406 494.378 626.285 495.292 626.285 496.616C626.285 497.929 625.406 498.843 623.918 498.843ZM632.918 498.843C631.441 498.843 630.562 497.929 630.562 496.616C630.562 495.292 631.441 494.378 632.918 494.378C634.406 494.378 635.285 495.292 635.285 496.616C635.285 497.929 634.406 498.843 632.918 498.843ZM641.918 498.843C640.441 498.843 639.562 497.929 639.562 496.616C639.562 495.292 640.441 494.378 641.918 494.378C643.406 494.378 644.285 495.292 644.285 496.616C644.285 497.929 643.406 498.843 641.918 498.843Z" fill="#EC7655"/>
<path d="M675.542 347.624C669.118 359.214 661.645 370.763 652.585 380.351C648.834 384.222 643.84 378.75 647.183 374.65C653.868 366.451 658.736 356.704 663.374 347.371C657.824 344.836 651.863 342.073 646.083 339.951C641.531 338.51 633.784 338.004 631.068 333.251C629.708 330.875 630.856 328.805 632.822 327.19C637.622 323.357 646.219 328.122 651.18 329.79C659.237 332.633 666.425 336.077 673.794 340.162C676.248 341.522 676.919 345.14 675.542 347.624Z" fill="#EC7655"/>
<path d="M463.946 306.561C493 300.832 506.348 311.596 521.399 327.067C533.138 322.279 546.83 317.745 560 321.456C572.161 324.883 577.375 337.47 582.458 345.185C587.746 353.21 592.206 359.555 601.109 361.585C609.893 363.588 621.682 360.851 631.86 357.182C636.833 355.389 641.212 353.454 644.348 351.966C645.913 351.223 647.162 350.594 648.015 350.155C648.44 349.935 648.767 349.762 648.983 349.647C649.091 349.589 649.172 349.546 649.224 349.518C649.249 349.504 649.268 349.493 649.279 349.487L649.293 349.48C649.767 349.219 650.778 349.009 650.778 349.009L653.137 349.474L654.725 351.057L654.939 354.456C654.939 354.456 653.996 356.022 653.147 356.49L651.22 352.985C653.112 356.424 653.146 356.49 653.146 356.49L653.144 356.491C653.142 356.492 653.139 356.494 653.137 356.495C653.131 356.498 653.123 356.503 653.114 356.508C653.096 356.518 653.07 356.532 653.037 356.55C652.97 356.586 652.874 356.638 652.75 356.704C652.502 356.836 652.143 357.026 651.683 357.264C650.761 357.739 649.431 358.408 647.777 359.193C644.474 360.76 639.851 362.806 634.573 364.708C624.25 368.429 610.709 374.513 599.5 371.956C587.092 369.126 580.902 357.364 575.777 349.586C570.448 341.498 566.013 334.837 557.135 332.335C546.887 329.448 536.625 330.118 527.055 333.473C527.409 333.915 527.762 334.358 528.108 334.807C543.484 354.712 554.028 382.609 549 406.956C546.816 417.533 540.5 429.456 531 435.956C521.5 442.456 513.326 443.75 502.5 442.456C491.37 441.125 481.754 432.843 476.5 424.99C471.32 417.248 469.695 405.189 470.5 394.456C472.085 373.323 484.883 353.921 500.735 340.01C504.769 336.471 509.14 333.346 513.77 330.752C500.359 317.867 483.297 310.899 465.493 314.409C459.375 315.616 452.053 318.809 446 323.456C439.974 328.082 435.425 333.988 430.585 339.642C425.754 345.285 421.76 350.773 418.974 354.855C417.582 356.893 416.496 358.573 415.762 359.738C415.395 360.32 415.116 360.773 414.931 361.076C414.838 361.228 414.769 361.343 414.725 361.417C414.702 361.455 414.686 361.482 414.676 361.499C414.671 361.508 414.667 361.513 414.665 361.517L414.663 361.518L414.664 361.519C413.949 362.729 412 363.456 412 363.456H409L407.775 361.956L407 359.456C407 359.456 407.398 358.09 407.775 357.45L411.22 359.485C407.776 357.451 407.776 357.448 407.776 357.448L407.778 357.446C407.78 357.443 407.781 357.44 407.783 357.437C407.787 357.43 407.793 357.42 407.801 357.407C407.815 357.383 407.837 357.348 407.864 357.303C407.918 357.213 407.997 357.082 408.1 356.913C408.305 356.577 408.605 356.089 408.995 355.471C409.775 354.234 410.915 352.472 412.367 350.344C415.269 346.094 419.439 340.36 424.508 334.439C429.568 328.528 435.587 322.355 442.198 317.281C448.782 312.226 456.167 308.095 463.946 306.561ZM519.422 336.784C514.682 339.247 510.179 342.366 506.012 346.023C491.595 358.674 481.624 377.417 480.209 396.284C479.495 405.804 481.255 413.86 485.163 419.701C488.998 425.433 495.16 429.433 504.194 430.513C513.141 431.583 520.832 429.427 526.716 424.99C532.618 420.541 536.96 413.601 538.803 404.676C543.275 383.023 536.003 358.114 521.777 339.698C521.01 338.705 520.224 337.734 519.422 336.784Z" fill="#EC7655"/>
</svg>
