<svg width="312" height="240" viewBox="0 0 312 240" fill="none" xmlns="http://www.w3.org/2000/svg">
<path d="M58.9922 196.534H66.0938C71.1328 196.534 74.0039 199.546 74.0039 204.831C74.0039 210.386 71.1797 213.456 66.0938 213.456H58.9922V196.534ZM63.293 199.991V209.999H65.3203C68.1094 209.999 69.6211 208.265 69.6211 204.913C69.6211 201.761 68.0273 199.991 65.3203 199.991H63.293ZM76.8281 213.456V200.413H80.8594V202.558H81.082C81.3984 201.245 82.6641 200.214 84.293 200.214C84.8438 200.214 85.4883 200.284 85.793 200.413V203.94C85.4766 203.812 84.6445 203.706 84.0117 203.706C82.1836 203.706 80.9648 204.737 80.9648 206.554V213.456H76.8281ZM92.6484 210.761C93.9609 210.761 94.9805 209.894 94.9805 208.769V207.913L92.7891 208.054C91.5586 208.147 90.9141 208.628 90.9141 209.413C90.9141 210.245 91.6055 210.761 92.6484 210.761ZM91.1367 213.655C88.6289 213.655 86.918 212.097 86.918 209.706C86.918 207.327 88.7695 205.944 92.1328 205.745L94.9805 205.581V204.562C94.9805 203.683 94.3242 203.155 93.1758 203.155C92.0859 203.155 91.3828 203.519 91.1133 204.21H87.3867C87.5742 201.679 89.8828 200.108 93.4102 200.108C97.0078 200.108 99.0586 201.749 99.0586 204.562V213.456H95.0273V211.839H94.8047C94.2188 212.952 92.7891 213.655 91.1367 213.655ZM108.27 210.222C109.863 210.222 110.801 208.944 110.801 206.858C110.801 204.761 109.852 203.472 108.27 203.472C106.699 203.472 105.773 204.761 105.773 206.847C105.773 208.933 106.688 210.222 108.27 210.222ZM108.152 218.366C104.52 218.366 102.07 216.808 101.906 214.464H105.938C106.09 215.167 106.969 215.612 108.27 215.612C109.863 215.612 110.777 214.862 110.777 213.573V211.218H110.555C109.887 212.565 108.562 213.269 106.711 213.269C103.512 213.269 101.52 210.784 101.52 206.858C101.52 202.757 103.512 200.214 106.805 200.214C108.539 200.214 110.004 201.081 110.66 202.511H110.883V200.413H114.926V213.304C114.926 216.409 112.301 218.366 108.152 218.366ZM125.062 197.425H129.199V200.589H131.824V203.671H129.199V208.956C129.199 209.94 129.703 210.421 130.781 210.421C131.262 210.421 131.52 210.397 131.824 210.362V213.315C131.391 213.409 130.629 213.479 129.844 213.479C126.41 213.479 125.062 212.437 125.062 209.882V203.671H123.059V200.589H125.062V197.425ZM140.508 213.761C136.336 213.761 133.863 211.218 133.863 206.929C133.863 202.71 136.406 200.108 140.508 200.108C144.633 200.108 147.152 202.687 147.152 206.929C147.152 211.229 144.691 213.761 140.508 213.761ZM140.508 210.597C142.031 210.597 142.898 209.249 142.898 206.929C142.898 204.655 142.008 203.272 140.508 203.272C139.008 203.272 138.117 204.655 138.117 206.929C138.117 209.261 138.984 210.597 140.508 210.597ZM160.301 213.456H156V196.546H160.301V213.456ZM163.922 213.456V200.413H167.953V202.534H168.176C168.75 201.058 170.109 200.108 171.996 200.108C174.902 200.108 176.414 201.901 176.414 205.03V213.456H172.266V205.956C172.266 204.374 171.621 203.495 170.215 203.495C168.867 203.495 168.059 204.503 168.059 206.003V213.456H163.922ZM179.238 204.339C179.238 201.749 181.453 200.108 184.969 200.108C188.578 200.108 190.559 201.503 190.711 204.128H186.938C186.82 203.366 186.129 202.909 185.004 202.909C183.926 202.909 183.176 203.378 183.176 204.081C183.176 204.632 183.645 204.96 184.676 205.183L187.371 205.733C189.938 206.272 191.051 207.339 191.051 209.319C191.051 212.026 188.672 213.761 185.027 213.761C181.289 213.761 179.156 212.343 178.922 209.718H182.918C183.129 210.526 183.867 210.96 185.086 210.96C186.223 210.96 186.961 210.503 186.961 209.8C186.961 209.249 186.574 208.956 185.531 208.733L183.105 208.218C180.516 207.667 179.238 206.39 179.238 204.339ZM194.695 197.425H198.832V200.589H201.457V203.671H198.832V208.956C198.832 209.94 199.336 210.421 200.414 210.421C200.895 210.421 201.152 210.397 201.457 210.362V213.315C201.023 213.409 200.262 213.479 199.477 213.479C196.043 213.479 194.695 212.437 194.695 209.882V203.671H192.691V200.589H194.695V197.425ZM209.25 210.761C210.562 210.761 211.582 209.894 211.582 208.769V207.913L209.391 208.054C208.16 208.147 207.516 208.628 207.516 209.413C207.516 210.245 208.207 210.761 209.25 210.761ZM207.738 213.655C205.23 213.655 203.52 212.097 203.52 209.706C203.52 207.327 205.371 205.944 208.734 205.745L211.582 205.581V204.562C211.582 203.683 210.926 203.155 209.777 203.155C208.688 203.155 207.984 203.519 207.715 204.21H203.988C204.176 201.679 206.484 200.108 210.012 200.108C213.609 200.108 215.66 201.749 215.66 204.562V213.456H211.629V211.839H211.406C210.82 212.952 209.391 213.655 207.738 213.655ZM218.93 213.456V195.526H223.066V213.456H218.93ZM226.547 213.456V195.526H230.684V213.456H226.547ZM236.918 213.843C235.441 213.843 234.562 212.929 234.562 211.616C234.562 210.292 235.441 209.378 236.918 209.378C238.406 209.378 239.285 210.292 239.285 211.616C239.285 212.929 238.406 213.843 236.918 213.843ZM245.918 213.843C244.441 213.843 243.562 212.929 243.562 211.616C243.562 210.292 244.441 209.378 245.918 209.378C247.406 209.378 248.285 210.292 248.285 211.616C248.285 212.929 247.406 213.843 245.918 213.843ZM254.918 213.843C253.441 213.843 252.562 212.929 252.562 211.616C252.562 210.292 253.441 209.378 254.918 209.378C256.406 209.378 257.285 210.292 257.285 211.616C257.285 212.929 256.406 213.843 254.918 213.843Z" fill="#EC7655"/>
<path d="M288.542 62.6239C282.118 74.2136 274.645 85.7634 265.585 95.3508C261.834 99.2225 256.84 93.75 260.183 89.65C266.868 81.4515 271.736 71.7045 276.374 62.3714C270.824 59.8359 264.863 57.0732 259.083 54.9512C254.531 53.51 246.784 53.0038 244.068 48.2513C242.708 45.8746 243.856 43.805 245.822 42.1896C250.622 38.3572 259.219 43.1222 264.18 44.7903C272.237 47.6332 279.425 51.077 286.794 55.1617C289.248 56.5224 289.919 60.1404 288.542 62.6239Z" fill="#EC7655"/>
<path d="M76.9463 21.5608C106 15.8319 119.348 26.5958 134.399 42.0667C146.138 37.2785 159.83 32.7448 173 36.4561C185.161 39.8829 190.375 52.4704 195.458 60.1848C200.746 68.2098 205.206 74.5546 214.109 76.5852C222.893 78.5884 234.682 75.8506 244.86 72.1819C249.833 70.3893 254.212 68.4544 257.348 66.9661C258.913 66.2231 260.162 65.5942 261.015 65.1545C261.44 64.9348 261.767 64.7622 261.983 64.6467C262.091 64.5892 262.172 64.5459 262.224 64.5178C262.249 64.5038 262.268 64.4928 262.279 64.4866L262.293 64.4797C262.767 64.219 263.778 64.0085 263.778 64.0085L266.137 64.4737L267.725 66.0569L267.939 69.4561C267.939 69.4561 266.996 71.0224 266.147 71.4895L264.22 67.9846C266.112 71.4239 266.146 71.4905 266.146 71.4905L266.144 71.4915C266.142 71.4925 266.139 71.4939 266.137 71.4954C266.131 71.4984 266.123 71.503 266.114 71.5081C266.096 71.5182 266.07 71.5322 266.037 71.55C265.97 71.5862 265.874 71.6383 265.75 71.7043C265.502 71.8365 265.143 72.0263 264.683 72.2639C263.761 72.7394 262.431 73.4075 260.777 74.1926C257.474 75.7605 252.851 77.8059 247.573 79.7083C237.25 83.4295 223.709 89.5126 212.5 86.9561C200.092 84.1259 193.902 72.3638 188.777 64.5862C183.448 56.498 179.013 49.837 170.135 47.3352C159.887 44.4477 149.625 45.1179 140.055 48.4729C140.409 48.9147 140.762 49.3583 141.108 49.8069C156.484 69.7117 167.028 97.6089 162 121.956C159.816 132.533 153.5 144.456 144 150.956C134.5 157.456 126.326 158.75 115.5 157.456C104.37 156.125 94.7536 147.843 89.5 139.99C84.3201 132.248 82.695 120.189 83.5 109.456C85.085 88.3233 97.8826 68.9213 113.735 55.01C117.769 51.4707 122.14 48.3461 126.77 45.7522C113.359 32.8669 96.297 25.8989 78.4931 29.4094C72.3747 30.6159 65.0531 33.8093 58.9999 38.4562C52.9737 43.0824 48.4252 48.9879 43.5849 54.6418C38.7539 60.2851 34.7603 65.7732 31.9736 69.8547C30.5822 71.8927 29.496 73.573 28.7617 74.7375C28.3946 75.3197 28.1156 75.7728 27.9306 76.0764C27.8382 76.2281 27.7693 76.3426 27.7246 76.4172C27.7022 76.4545 27.6859 76.4822 27.6757 76.4993C27.6707 76.5077 27.667 76.5135 27.665 76.5168L27.6631 76.5178L27.664 76.5188C26.9491 77.7293 24.9999 78.4562 24.9999 78.4562H21.9999L20.7754 76.9562L20 74.4561C20 74.4561 20.3976 73.09 20.7754 72.4504L24.2197 74.4846C20.7757 72.4505 20.7763 72.4485 20.7763 72.4485L20.7783 72.4456C20.7796 72.4433 20.7811 72.4402 20.7832 72.4368C20.7874 72.4296 20.7934 72.4198 20.8007 72.4075C20.8155 72.3827 20.8372 72.3481 20.8642 72.303C20.9184 72.2126 20.997 72.0816 21.0996 71.9133C21.3047 71.5768 21.6051 71.0893 21.9951 70.4709C22.775 69.2342 23.9146 67.4715 25.3672 65.344C28.2685 61.0945 32.4385 55.3602 37.5078 49.4387C42.5679 43.5279 48.5875 37.3555 55.1982 32.2805C61.782 27.2263 69.1666 23.0948 76.9463 21.5608ZM132.422 51.7844C127.682 54.2467 123.179 57.3661 119.012 61.0227C104.595 73.6736 94.624 92.417 93.209 111.284C92.4951 120.804 94.2546 128.86 98.1631 134.701C101.998 140.433 108.16 144.433 117.194 145.513C126.141 146.583 133.832 144.427 139.716 139.99C145.618 135.541 149.96 128.601 151.803 119.676C156.275 98.0228 149.003 73.1142 134.777 54.6975C134.01 53.7047 133.224 52.7337 132.422 51.7844Z" fill="#EC7655"/>
</svg>
