<svg width="272" height="138" viewBox="0 0 272 138" fill="none" xmlns="http://www.w3.org/2000/svg">
<path d="M268.542 42.6239C262.118 54.2136 254.645 65.7634 245.585 75.3508C241.834 79.2225 236.84 73.75 240.183 69.65C246.868 61.4515 251.736 51.7045 256.374 42.3714C250.824 39.8359 244.863 37.0732 239.083 34.9512C234.531 33.51 226.784 33.0038 224.068 28.2513C222.708 25.8746 223.856 23.805 225.822 22.1896C230.622 18.3572 239.219 23.1222 244.18 24.7903C252.237 27.6332 259.425 31.077 266.794 35.1617C269.248 36.5224 269.919 40.1404 268.542 42.6239Z" fill="#EC7655"/>
<path d="M56.9463 1.56079C85.9999 -4.16806 99.3484 6.5958 114.399 22.0667C126.138 17.2785 139.83 12.7448 153 16.4561C165.161 19.8829 170.375 32.4704 175.458 40.1848C180.746 48.2098 185.206 54.5546 194.109 56.5852C202.893 58.5884 214.682 55.8506 224.86 52.1819C229.833 50.3893 234.212 48.4544 237.348 46.9661C238.913 46.2231 240.162 45.5942 241.015 45.1545C241.44 44.9348 241.767 44.7622 241.983 44.6467C242.091 44.5892 242.172 44.5459 242.224 44.5178C242.249 44.5038 242.268 44.4928 242.279 44.4866L242.293 44.4797C242.767 44.219 243.778 44.0085 243.778 44.0085L246.137 44.4737L247.725 46.0569L247.939 49.4561C247.939 49.4561 246.996 51.0224 246.147 51.4895L244.22 47.9846C246.112 51.4239 246.146 51.4905 246.146 51.4905L246.144 51.4915C246.142 51.4925 246.139 51.4939 246.137 51.4954C246.131 51.4984 246.123 51.503 246.114 51.5081C246.096 51.5182 246.07 51.5322 246.037 51.55C245.97 51.5862 245.874 51.6383 245.75 51.7043C245.502 51.8365 245.143 52.0263 244.683 52.2639C243.761 52.7394 242.431 53.4075 240.777 54.1926C237.474 55.7605 232.851 57.8059 227.573 59.7083C217.25 63.4295 203.709 69.5126 192.5 66.9561C180.092 64.1259 173.902 52.3638 168.777 44.5862C163.448 36.498 159.013 29.837 150.135 27.3352C139.887 24.4477 129.625 25.1179 120.055 28.4729C120.409 28.9147 120.762 29.3583 121.108 29.8069C136.484 49.7117 147.028 77.6089 142 101.956C139.816 112.533 133.5 124.456 124 130.956C114.5 137.456 106.326 138.75 95.5 137.456C84.3696 136.125 74.7536 127.843 69.5 119.99C64.3201 112.248 62.695 100.189 63.5 89.4561C65.085 68.3233 77.8826 48.9213 93.7353 35.01C97.7686 31.4707 102.14 28.3461 106.77 25.7522C93.3585 12.8669 76.297 5.89891 58.4931 9.40943C52.3747 10.6159 45.0531 13.8093 38.9999 18.4562C32.9737 23.0824 28.4252 28.9879 23.5849 34.6418C18.7539 40.2851 14.7603 45.7732 11.9736 49.8547C10.5822 51.8927 9.49603 53.573 8.76169 54.7375C8.39462 55.3197 8.11563 55.7728 7.93063 56.0764C7.8382 56.2281 7.76932 56.3426 7.72458 56.4172C7.70221 56.4545 7.68592 56.4822 7.67575 56.4993C7.67073 56.5077 7.66699 56.5135 7.66501 56.5168L7.66305 56.5178L7.66403 56.5188C6.94907 57.7293 4.99995 58.4562 4.99995 58.4562H1.99995L0.775359 56.9562L0 54.4561C0 54.4561 0.397592 53.09 0.775359 52.4504L4.2197 54.4846C0.775724 52.4505 0.776335 52.4485 0.776335 52.4485L0.778289 52.4456C0.779605 52.4433 0.781134 52.4402 0.783171 52.4368C0.787415 52.4296 0.793428 52.4198 0.80075 52.4075C0.815491 52.3827 0.837186 52.3481 0.864226 52.303C0.918425 52.2126 0.997025 52.0816 1.09958 51.9133C1.30466 51.5768 1.60514 51.0893 1.99509 50.4709C2.77497 49.2342 3.9146 47.4715 5.36716 45.344C8.26852 41.0945 12.4385 35.3602 17.5078 29.4387C22.5679 23.5279 28.5875 17.3555 35.1982 12.2805C41.782 7.22628 49.1666 3.09476 56.9463 1.56079ZM112.422 31.7844C107.682 34.2467 103.179 37.3661 99.0117 41.0227C84.5952 53.6736 74.624 72.417 73.209 91.2844C72.4951 100.804 74.2546 108.86 78.1631 114.701C81.9978 120.433 88.1595 124.433 97.1943 125.513C106.141 126.583 113.832 124.427 119.716 119.99C125.618 115.541 129.96 108.601 131.803 99.676C136.275 78.0228 129.003 53.1142 114.777 34.6975C114.01 33.7047 113.224 32.7337 112.422 31.7844Z" fill="#EC7655"/>
</svg>
