<svg width="192" height="192" viewBox="0 0 192 192" fill="none" xmlns="http://www.w3.org/2000/svg">
<rect width="192" height="192" rx="39" fill="#EBE6DB"/>
<rect width="182.4" height="182.4" transform="translate(4.79999 4.7998)" fill="#EBE6DB"/>
<path d="M90.3 59.3061C112.926 59.3061 131.269 77.6484 131.269 100.275C131.269 122.901 112.926 141.244 90.3 141.244C81.7452 141.244 73.8029 138.622 67.2328 134.137C63.6759 131.735 58.5047 131.981 56.0109 135.276C53.4308 138.686 54.2473 144.039 58.044 146.409C67.1786 152.808 78.3008 156.562 90.3 156.562C121.387 156.562 146.588 131.362 146.588 100.275C146.588 69.1881 121.387 43.9873 90.3 43.9873C81.3805 43.9873 72.9457 46.0619 65.4516 49.7549L72.4875 63.3706C77.8735 60.7661 83.9162 59.3061 90.3 59.3061Z" fill="#286195"/>
<path d="M90.2999 43.9877C121.387 43.9877 146.587 69.1885 146.587 100.275C146.587 131.362 121.387 156.563 90.2999 156.563C83.9141 156.563 80.6812 159.68 80.6812 164.133C80.6812 168.586 83.9765 171.881 90.2999 171.881C129.847 171.881 161.906 139.822 161.906 100.275C161.906 60.7282 129.847 28.6689 90.2999 28.6689C78.8799 28.6689 68.0842 31.3423 58.5046 36.0974L65.4515 49.7768C72.9234 46.1111 81.4158 43.9877 90.2999 43.9877Z" fill="#367CAF"/>
<path d="M90.3 28.8471C129.749 28.8471 161.728 60.8265 161.728 100.275C161.728 127.479 146.521 151.13 124.144 163.192C120.67 165.065 117.362 169.121 119.602 174.019C121.841 178.917 127.795 178.617 131.18 176.805C158.477 162.193 177.047 133.403 177.047 100.275C177.047 52.3662 138.209 13.5283 90.3 13.5283C76.3761 13.5283 63.2185 16.8088 51.5578 22.6391L58.5937 36.2521C68.147 31.512 78.9123 28.8471 90.3 28.8471Z" fill="#4BA6D2"/>
<circle cx="90.8343" cy="100.453" r="24.4031" fill="#EC7655"/>
</svg>
