<svg width="1024" height="1024" viewBox="0 0 1024 1024" fill="none" xmlns="http://www.w3.org/2000/svg">
<g clip-path="url(#clip0_114_1976)">
<path d="M480 306C607.026 306 710 408.975 710 536C710 663.025 607.026 766 480 766C431.973 766 387.385 751.28 350.5 726.105C330.531 712.618 301.5 714 287.5 732.5C273.015 751.641 277.599 781.696 298.914 795C350.196 830.921 412.636 852 480 852C654.522 852 796 710.522 796 536C796 361.478 654.522 220 480 220C429.926 220 382.572 231.647 340.5 252.38L380 328.818C410.237 314.197 444.161 306 480 306Z" fill="#286195"/>
<path d="M480 220C654.522 220 796 361.478 796 536C796 710.522 654.522 852 480 852C444.149 852 426 869.5 426 894.5C426 919.5 444.5 938 480 938C702.018 938 882 758.018 882 536C882 313.982 702.018 134 480 134C415.887 134 355.28 149.008 301.5 175.704L340.5 252.5C382.447 231.921 430.124 220 480 220Z" fill="#367CAF"/>
<path d="M480 135C701.466 135 881 314.534 881 536C881 688.721 795.626 821.501 670 889.219C650.5 899.73 631.929 922.5 644.5 950C657.071 977.5 690.5 975.812 709.5 965.642C862.75 883.609 967 721.979 967 536C967 267.037 748.963 49 480 49C401.831 49 327.964 67.4168 262.5 100.148L302 176.572C355.632 149.961 416.069 135 480 135Z" fill="#4BA6D2"/>
<circle cx="483" cy="537" r="137" fill="#EC7655"/>
</g>
<defs>
<clipPath id="clip0_114_1976">
<rect width="1024" height="1024" fill="white"/>
</clipPath>
</defs>
</svg>
