<svg width="1024" height="1024" viewBox="0 0 1024 1024" fill="none" xmlns="http://www.w3.org/2000/svg">
<rect width="1024" height="1024" fill="#EBE6DB"/>
<rect width="972.8" height="972.8" transform="translate(25.6001 25.5996)" fill="#EBE6DB"/>
<path d="M481.6 316.3C602.274 316.3 700.1 414.125 700.1 534.8C700.1 655.474 602.274 753.3 481.6 753.3C435.975 753.3 393.616 739.316 358.575 715.4C339.605 702.586 312.025 703.9 298.725 721.475C284.964 739.659 289.319 768.211 309.568 780.85C358.286 814.975 417.604 835 481.6 835C647.396 835 781.8 700.596 781.8 534.8C781.8 369.004 647.396 234.6 481.6 234.6C434.03 234.6 389.044 245.664 349.075 265.36L386.6 337.977C415.325 324.087 447.553 316.3 481.6 316.3Z" fill="#286195"/>
<path d="M481.6 234.6C647.396 234.6 781.8 369.005 781.8 534.8C781.8 700.596 647.396 835 481.6 835C447.542 835 430.3 851.625 430.3 875.375C430.3 899.125 447.875 916.7 481.6 916.7C692.517 916.7 863.5 745.718 863.5 534.8C863.5 323.883 692.517 152.9 481.6 152.9C420.693 152.9 363.116 167.158 312.025 192.519L349.075 265.475C388.925 245.925 434.218 234.6 481.6 234.6Z" fill="#367CAF"/>
<path d="M481.6 153.85C691.993 153.85 862.55 324.408 862.55 534.8C862.55 679.885 781.445 806.026 662.1 870.358C643.575 880.344 625.932 901.975 637.875 928.1C649.818 954.225 681.575 952.622 699.625 942.96C845.213 865.029 944.25 711.48 944.25 534.8C944.25 279.286 737.115 72.1504 481.6 72.1504C407.34 72.1504 337.166 89.6464 274.975 120.741L312.5 193.344C363.451 168.063 420.866 153.85 481.6 153.85Z" fill="#4BA6D2"/>
<circle cx="484.45" cy="535.75" r="130.15" fill="#EC7655"/>
</svg>
